<svg xmlns="http://www.w3.org/2000/svg" width="187.263" height="50.072" viewBox="0 0 187.263 50.072">
  <g id="Group_2043" data-name="Group 2043" transform="translate(-213.425 -213.425)">
    <g id="Group_2055" data-name="Group 2055" transform="translate(213.425 213.425)">
      <path id="Path_1447" data-name="Path 1447" d="M423.743,236.954q0,26.243-24.711,26.243h-9.99a.909.909,0,0,1-.562-1.623,15.5,15.5,0,0,0,4.262-5.382,1.749,1.749,0,0,1,1.583-1h4.706q15.488,0,15.488-18.238,0-15.524-15.488-15.524H388.764v.009a13.96,13.96,0,0,0-7.561,2.366,1.075,1.075,0,0,1-1.662-.9v-4.889a4.588,4.588,0,0,1,4.588-4.588h14.9Q423.744,213.425,423.743,236.954Zm9.16-10.3h1.107a4.058,4.058,0,0,1,4.058,4.058v28.825a3.664,3.664,0,0,1-3.664,3.664h-1.9a3.664,3.664,0,0,1-3.664-3.664V230.709A4.058,4.058,0,0,1,432.9,226.651Zm78.137,20.808,7.514,10.063a3.738,3.738,0,0,1-2.995,5.974h-.94a3.738,3.738,0,0,1-2.994-1.5l-4.411-5.906a3.738,3.738,0,0,0-5.989,0L496.814,262a3.738,3.738,0,0,1-2.994,1.5h-17.2a3.738,3.738,0,0,1-3.065-1.6L460.2,242.776a3.737,3.737,0,0,1-.673-2.139h0a3.754,3.754,0,0,1,2.865-3.632q10.36-2.585,10.36-9.672,0-5.5-6.2-5.5h-8.9a3.738,3.738,0,0,0-3.738,3.738V259.69a3.738,3.738,0,0,1-3.738,3.738h-1.924a3.738,3.738,0,0,1-3.737-3.738V217.462a3.737,3.737,0,0,1,3.737-3.738h18.886q15.246,0,15.246,13.331,0,7.564-8.356,12.947a3.751,3.751,0,0,0-1.029,5.374l9.87,12.252a3.737,3.737,0,0,0,6.007.03l8.539-10.194a3.738,3.738,0,0,0,0-4.479L489.9,232.927a3.738,3.738,0,0,1,2.992-5.977h.927a3.737,3.737,0,0,1,2.994,1.5l4.411,5.906a3.737,3.737,0,0,0,5.989,0l4.411-5.906a3.738,3.738,0,0,1,2.994-1.5h.94a3.738,3.738,0,0,1,2.995,5.974l-7.514,10.063A3.738,3.738,0,0,0,511.041,247.459Zm-81.695-30.786h8.222a2.953,2.953,0,0,1,2.953,2.953h0a2.953,2.953,0,0,1-2.953,2.953h-8.222a2.953,2.953,0,0,1-2.953-2.953h0A2.953,2.953,0,0,1,429.347,216.674Z" transform="translate(-348.368 -213.425)" fill="#6554a4"/>
      <g id="Group_2054" data-name="Group 2054" transform="translate(0 9.722)">
        <path id="Path_1448" data-name="Path 1448" d="M253.828,265.232a13.066,13.066,0,0,0-9.04,4.033.091.091,0,0,1-.065.027H230.891a1.772,1.772,0,0,0-1.634,1.326,1.025,1.025,0,0,0,1.022,1.331h2.173l0,.011h9.161a1.024,1.024,0,0,1,1.021,1.329A1.773,1.773,0,0,1,241,274.614H235.79l0,.011H218.309a1.774,1.774,0,0,0-1.635,1.33,1.023,1.023,0,0,0,1.021,1.328h17.479v.012h.906a1.023,1.023,0,0,1,1.021,1.33,1.772,1.772,0,0,1-1.635,1.325H232.75v.01H221.686a1.774,1.774,0,0,0-1.634,1.331,1.02,1.02,0,0,0,1.021,1.325h11.063l0,.014h6.156a1.021,1.021,0,0,1,1.022,1.325,1.771,1.771,0,0,1-1.633,1.327h-6.156l0,.01h-7.924a1.775,1.775,0,0,0-1.636,1.331,1.022,1.022,0,0,0,1.022,1.326H230.9l0,.014h11.32a1.022,1.022,0,0,1,1.02,1.326,1.773,1.773,0,0,1-1.635,1.326h-11.32l0,.011h-15.19a1.775,1.775,0,0,0-1.634,1.332,1.022,1.022,0,0,0,1.022,1.326h15.192l0,.009h15.877a1.025,1.025,0,0,1,1.024,1.329,1.777,1.777,0,0,1-1.636,1.329H232.889a1.77,1.77,0,0,0-1.634,1.326,1.022,1.022,0,0,0,1.02,1.328h4.205a.092.092,0,0,1,.09.079,7.661,7.661,0,0,0,8.005,6.605c5.633,0,11.248-4.563,12.551-10.195l4.542-19.672C262.968,269.794,259.458,265.232,253.828,265.232Zm5.087,10.193-2.048,8.881c-.139.593-.458.975-1.592.975H243.59c-1.313,0-1.682-.182-1.705-.559l.267-1.166,0-.006.217-.935.613-2.656,1.045-4.534a9.273,9.273,0,0,1,1.668-3.477,10.574,10.574,0,0,1,1.727-1.786,11.078,11.078,0,0,1,1.254-.871,8.912,8.912,0,0,1,4.514-1.308,5.846,5.846,0,0,1,4.762,2.179A6.2,6.2,0,0,1,258.915,275.425Z" transform="translate(-213.425 -265.232)" fill="#da6f27"/>
        <path id="Path_1449" data-name="Path 1449" d="M242.9,428.94H232.58a1.77,1.77,0,0,0-1.633,1.326,1.022,1.022,0,0,0,1.02,1.328h10.316a1.774,1.774,0,0,0,1.637-1.328A1.022,1.022,0,0,0,242.9,428.94Z" transform="translate(-227.63 -398.219)" fill="#da6f27"/>
        <path id="Path_1450" data-name="Path 1450" d="M251.721,289.523h4.565a1.772,1.772,0,0,0,1.636-1.331,1.022,1.022,0,0,0-1.023-1.326h-4.567a1.772,1.772,0,0,0-1.634,1.326A1.025,1.025,0,0,0,251.721,289.523Z" transform="translate(-243.676 -282.806)" fill="#da6f27"/>
      </g>
    </g>
    <g id="Group_2056" data-name="Group 2056" transform="translate(389.486 226.914)">
      <path id="Path_1451" data-name="Path 1451" d="M1151.682,286.172a1.529,1.529,0,0,1-.039-.222,2.071,2.071,0,0,1-.011-.208,2,2,0,0,1,.011-.2,1.731,1.731,0,0,1,.039-.229h4.564a1.67,1.67,0,0,1,.048.2,1.132,1.132,0,0,1,.018.2.4.4,0,0,1-.146.36.8.8,0,0,1-.443.1Zm1.761.641v-1.071h1.063v5.569c-.087.015-.179.026-.275.033s-.185.011-.263.011-.162,0-.254-.011-.181-.018-.27-.033Zm3.729-1.456a3.564,3.564,0,0,1,.385-.04c.135-.007.252-.011.348-.011s.215,0,.34.011a3.686,3.686,0,0,1,.368.04l.75,2.57c.076.262.146.517.206.764s.11.475.149.684h.087c.034-.209.083-.436.146-.684s.133-.5.211-.764l.75-2.57c.126-.02.25-.033.371-.04s.233-.011.334-.011.208,0,.346.011a3.6,3.6,0,0,1,.389.04l.479,5.94a2.835,2.835,0,0,1-.3.043c-.1.01-.2.014-.29.014s-.158,0-.238-.011l-.213-.018-.183-2.977c-.015-.252-.029-.557-.039-.914s-.023-.674-.034-.95h-.073l-1.178,3.923-.263.019c-.1.007-.194.011-.292.011-.076,0-.16,0-.247-.011l-.247-.019-1.18-3.923h-.073q-.013.415-.032.95c-.012.356-.025.661-.041.914l-.181,2.977-.215.018c-.08.007-.158.011-.236.011s-.188,0-.292-.014-.2-.024-.3-.043Z" transform="translate(-1151.632 -285.306)" fill="#6554a4"/>
    </g>
  </g>
</svg>
