<svg id="DiRx_Logo_DarkBG" xmlns="http://www.w3.org/2000/svg" xmlns:xlink="http://www.w3.org/1999/xlink" width="154.527" height="41.318" viewBox="0 0 154.527 41.318">
  <defs>
    <clipPath id="clip-path">
      <rect id="Rectangle_870" data-name="Rectangle 870" width="154.527" height="41.318" fill="none"/>
    </clipPath>
  </defs>
  <g id="Group_2564" data-name="Group 2564" clip-path="url(#clip-path)">
    <path id="Path_1716" data-name="Path 1716" d="M202.591,19.416q0,21.655-20.391,21.656h-8.243a.75.75,0,0,1-.463-1.339,12.789,12.789,0,0,0,3.517-4.441,1.443,1.443,0,0,1,1.306-.826H182.2q12.78,0,12.78-15.05,0-12.81-12.78-12.81h-8.473v.008a11.519,11.519,0,0,0-6.239,1.953.888.888,0,0,1-1.371-.746V3.786A3.786,3.786,0,0,1,169.9,0h12.3q20.392,0,20.391,19.416m7.559-8.5h.913a3.349,3.349,0,0,1,3.349,3.349V38.048a3.023,3.023,0,0,1-3.023,3.023h-1.564a3.023,3.023,0,0,1-3.023-3.023V14.263a3.349,3.349,0,0,1,3.349-3.349m64.477,17.171,6.2,8.3a3.084,3.084,0,0,1-2.471,4.93h-.776a3.084,3.084,0,0,1-2.471-1.239l-3.64-4.874a3.084,3.084,0,0,0-4.942,0l-3.64,4.874a3.084,3.084,0,0,1-2.471,1.239H246.223A3.084,3.084,0,0,1,243.694,40L232.677,24.22a3.082,3.082,0,0,1,1.809-4.762q8.549-2.133,8.549-7.981,0-4.538-5.112-4.538h-7.341a3.084,3.084,0,0,0-3.084,3.084V38.177a3.084,3.084,0,0,1-3.084,3.084h-1.588a3.084,3.084,0,0,1-3.084-3.084V3.331A3.084,3.084,0,0,1,222.826.247h15.584q12.581,0,12.581,11,0,6.242-6.9,10.684a3.1,3.1,0,0,0-.849,4.434l8.144,10.11a3.084,3.084,0,0,0,4.957.025l7.046-8.412a3.084,3.084,0,0,0,0-3.7l-6.211-8.3a3.084,3.084,0,0,1,2.469-4.932h.765a3.084,3.084,0,0,1,2.471,1.239l3.64,4.874a3.084,3.084,0,0,0,4.942,0l3.64-4.874a3.084,3.084,0,0,1,2.471-1.239h.776a3.084,3.084,0,0,1,2.471,4.93l-6.2,8.3a3.084,3.084,0,0,0,0,3.691m-67.413-25.4H214a2.437,2.437,0,1,1,0,4.873h-6.784a2.437,2.437,0,1,1,0-4.873" transform="translate(-140.393)" fill="#fff"/>
    <path id="Path_1717" data-name="Path 1717" d="M33.341,51.808a10.782,10.782,0,0,0-7.46,3.328.075.075,0,0,1-.053.022H14.414a1.463,1.463,0,0,0-1.349,1.094.846.846,0,0,0,.844,1.1H15.7v.009h7.56a.844.844,0,0,1,.842,1.1,1.463,1.463,0,0,1-1.35,1.094h-4.3l0,.009H4.031a1.464,1.464,0,0,0-1.349,1.1.844.844,0,0,0,.842,1.1H17.948v.01h.748a.844.844,0,0,1,.842,1.1,1.463,1.463,0,0,1-1.349,1.093h-2.24v.008H6.817a1.464,1.464,0,0,0-1.348,1.1.841.841,0,0,0,.843,1.093h9.129l0,.012h5.079a.843.843,0,0,1,.843,1.094,1.461,1.461,0,0,1-1.347,1.1h-5.08l0,.009H8.391a1.464,1.464,0,0,0-1.35,1.1.844.844,0,0,0,.843,1.094h6.539l0,.012h9.341a.843.843,0,0,1,.842,1.094,1.463,1.463,0,0,1-1.349,1.095H13.916l0,.009H1.378a1.464,1.464,0,0,0-1.349,1.1.843.843,0,0,0,.844,1.094H13.409l0,.007h13.1a.846.846,0,0,1,.845,1.1,1.467,1.467,0,0,1-1.35,1.1H16.062a1.46,1.46,0,0,0-1.348,1.094.844.844,0,0,0,.842,1.1h3.47a.076.076,0,0,1,.075.065,6.322,6.322,0,0,0,6.606,5.45,11.226,11.226,0,0,0,10.357-8.413l3.748-16.233c1.071-4.647-1.825-8.411-6.471-8.411m4.2,8.411-1.69,7.329c-.115.489-.378.8-1.314.8H24.893c-1.083,0-1.388-.151-1.407-.461l.221-.962,0,0,.179-.772.506-2.192.863-3.741a7.655,7.655,0,0,1,1.376-2.869,8.723,8.723,0,0,1,1.425-1.474,9.108,9.108,0,0,1,1.035-.719,7.354,7.354,0,0,1,3.725-1.079,4.824,4.824,0,0,1,3.93,1.8,5.114,5.114,0,0,1,.792,4.343" transform="translate(-0.001 -43.785)" fill="#fcb54e"/>
    <path id="Path_1718" data-name="Path 1718" d="M27.379,215.515H18.863a1.46,1.46,0,0,0-1.348,1.094.844.844,0,0,0,.841,1.1H26.87a1.464,1.464,0,0,0,1.351-1.1.844.844,0,0,0-.843-1.094" transform="translate(-14.779 -182.142)" fill="#fcb54e"/>
    <path id="Path_1719" data-name="Path 1719" d="M38.111,75.634h3.767a1.462,1.462,0,0,0,1.35-1.1.843.843,0,0,0-.844-1.094H38.616a1.462,1.462,0,0,0-1.348,1.094.846.846,0,0,0,.844,1.1" transform="translate(-31.472 -62.069)" fill="#fcb54e"/>
    <path id="Path_1720" data-name="Path 1720" d="M938.249,72.6a1.293,1.293,0,0,1-.032-.183q-.009-.087-.009-.172t.009-.165a1.463,1.463,0,0,1,.032-.189h3.766a1.419,1.419,0,0,1,.04.162.927.927,0,0,1,.015.169.332.332,0,0,1-.12.3.657.657,0,0,1-.365.081Zm1.453.529v-.884h.877v4.6c-.072.012-.148.021-.227.027s-.152.009-.217.009-.134,0-.21-.009-.15-.015-.223-.027Zm3.077-1.2a2.956,2.956,0,0,1,.318-.033c.112-.006.208-.009.287-.009s.177,0,.28.009.2.017.3.033l.619,2.121c.063.216.12.427.17.631s.091.392.123.565h.072c.028-.172.069-.36.12-.565s.11-.414.174-.631l.619-2.121c.1-.016.207-.027.307-.033s.192-.009.276-.009.172,0,.286.009a2.983,2.983,0,0,1,.321.033l.4,4.9a2.365,2.365,0,0,1-.246.036c-.084.008-.164.012-.239.012s-.131,0-.2-.009l-.176-.015-.151-2.457c-.012-.208-.023-.46-.032-.754s-.019-.556-.028-.784h-.06l-.972,3.237-.217.015c-.079.006-.16.009-.241.009-.063,0-.132,0-.2-.009l-.2-.015-.974-3.237h-.06c-.007.228-.016.49-.026.784s-.021.546-.034.754l-.15,2.457-.177.015c-.066.006-.13.009-.195.009s-.156,0-.24-.012a2.475,2.475,0,0,1-.246-.036Z" transform="translate(-792.925 -60.75)" fill="#fff"/>
  </g>
</svg>
